<svg xmlns="http://www.w3.org/2000/svg" viewBox="0 0 180 320">
  <rect x="0" y="0" width="180" height="320" fill="#ffffff"/>
  <text x="20" y="18" fill="#334155" font-size="12">后视候选覆盖</text>
  <polygon points="87.73,0.0 74.77,10.76 78.64,43.5 49.32,61.66 30.23,125.34 10.0,141.7 17.5,143.5 10.23,156.95 30.68,161.43 62.5,96.19 57.27,178.92 66.14,277.8 52.5,293.95 80.68,295.74 90.45,160.76 99.55,295.29 109.09,299.55 127.73,293.95 114.09,278.92 122.95,176.23 116.82,98.21 150.0,162.33 165.0,161.88 169.55,155.16 162.27,143.72 169.77,141.7 150.91,128.03 129.77,60.09 101.36,43.27 104.09,7.62" fill="#f8fafc" stroke="#94a3b8" stroke-width="1" />
  <polygon points="48.4,87.0 58.0,90.0 59.6,108.0 51.6,114.0 46.8,99.0" fill="#bfdbfe" fill-opacity="0.55" stroke="#334155" stroke-width="0.6" /><polygon points="131.6,87.0 122.0,90.0 120.4,108.0 128.4,114.0 133.2,99.0" fill="#93c5fd" fill-opacity="0.55" stroke="#334155" stroke-width="0.6" /><polygon points="53.2,69.0 61.2,66.0 64.4,87.0 58.0,96.0 51.6,87.0" fill="#60a5fa" fill-opacity="0.55" stroke="#334155" stroke-width="0.6" /><polygon points="126.8,69.0 118.8,66.0 115.6,87.0 122.0,96.0 128.4,87.0" fill="#38bdf8" fill-opacity="0.55" stroke="#334155" stroke-width="0.6" /><polygon points="67.6,66.0 112.4,66.0 117.2,108.0 90.0,126.0 62.8,108.0" fill="#7dd3fc" fill-opacity="0.55" stroke="#334155" stroke-width="0.6" /><polygon points="64.4,102.0 74.0,102.0 78.8,162.0 67.6,180.0 61.2,147.0" fill="#a5f3fc" fill-opacity="0.55" stroke="#334155" stroke-width="0.6" /><polygon points="115.6,102.0 106.0,102.0 101.2,162.0 112.4,180.0 118.8,147.0" fill="#bfdbfe" fill-opacity="0.55" stroke="#334155" stroke-width="0.6" /><polygon points="80.4,129.0 99.6,129.0 102.8,171.0 90.0,189.0 77.2,171.0" fill="#93c5fd" fill-opacity="0.55" stroke="#334155" stroke-width="0.6" /><polygon points="58.0,111.0 62.8,120.0 61.2,147.0 54.8,156.0 53.2,132.0" fill="#60a5fa" fill-opacity="0.55" stroke="#334155" stroke-width="0.6" /><polygon points="122.0,111.0 117.2,120.0 118.8,147.0 125.2,156.0 126.8,132.0" fill="#38bdf8" fill-opacity="0.55" stroke="#334155" stroke-width="0.6" /><polygon points="48.4,111.0 58.0,111.0 59.6,138.0 51.6,150.0 46.8,132.0" fill="#7dd3fc" fill-opacity="0.55" stroke="#334155" stroke-width="0.6" /><polygon points="131.6,111.0 122.0,111.0 120.4,138.0 128.4,150.0 133.2,132.0" fill="#a5f3fc" fill-opacity="0.55" stroke="#334155" stroke-width="0.6" /><polygon points="45.2,150.0 53.2,150.0 56.4,186.0 50.0,198.0 43.6,174.0" fill="#bfdbfe" fill-opacity="0.55" stroke="#334155" stroke-width="0.6" /><polygon points="134.8,150.0 126.8,150.0 123.6,186.0 130.0,198.0 136.4,174.0" fill="#93c5fd" fill-opacity="0.55" stroke="#334155" stroke-width="0.6" /><polygon points="72.4,168.0 85.2,168.0 88.4,198.0 77.2,210.0 69.2,192.0" fill="#60a5fa" fill-opacity="0.55" stroke="#334155" stroke-width="0.6" /><polygon points="107.6,168.0 94.8,168.0 91.6,198.0 102.8,210.0 110.8,192.0" fill="#38bdf8" fill-opacity="0.55" stroke="#334155" stroke-width="0.6" /><polygon points="72.4,210.0 85.2,210.0 86.8,252.0 77.2,267.0 69.2,246.0" fill="#7dd3fc" fill-opacity="0.55" stroke="#334155" stroke-width="0.6" /><polygon points="107.6,210.0 94.8,210.0 93.2,252.0 102.8,267.0 110.8,246.0" fill="#a5f3fc" fill-opacity="0.55" stroke="#334155" stroke-width="0.6" /><polygon points="74.0,252.0 83.6,252.0 85.2,285.0 77.2,294.0 72.4,273.0" fill="#bfdbfe" fill-opacity="0.55" stroke="#334155" stroke-width="0.6" /><polygon points="106.0,252.0 96.4,252.0 94.8,285.0 102.8,294.0 107.6,273.0" fill="#93c5fd" fill-opacity="0.55" stroke="#334155" stroke-width="0.6" />
</svg>