<svg xmlns="http://www.w3.org/2000/svg" viewBox="0 0 180 320">
  <rect x="0" y="0" width="180" height="320" fill="#ffffff"/>
  <text x="20" y="18" fill="#334155" font-size="12">前视候选覆盖</text>
  <polygon points="86.72,0.22 75.4,7.57 71.1,23.39 78.12,45.43 49.83,61.47 28.78,127.62 10.0,140.76 18.15,142.54 10.23,155.46 31.27,160.36 62.05,96.21 57.07,175.5 65.67,274.83 51.41,295.1 64.54,299.78 79.93,289.98 90.34,160.13 99.39,289.53 116.59,299.78 127.91,293.54 113.65,273.94 122.48,177.73 114.55,102.9 119.08,96.21 148.95,161.02 163.66,161.47 169.09,154.34 161.4,142.54 169.77,140.76 153.03,132.29 128.36,59.47 101.2,44.99 108.44,25.17 103.92,7.57" fill="#f8fafc" stroke="#94a3b8" stroke-width="1" />
  <polygon points="66.0,60.0 77.2,51.0 86.8,60.0 83.6,75.0 67.6,75.0" fill="#bfdbfe" fill-opacity="0.55" stroke="#334155" stroke-width="0.6" /><polygon points="114.0,60.0 102.8,51.0 93.2,60.0 96.4,75.0 112.4,75.0" fill="#93c5fd" fill-opacity="0.55" stroke="#334155" stroke-width="0.6" /><polygon points="62.8,75.0 77.2,72.0 86.8,84.0 83.6,102.0 67.6,102.0" fill="#60a5fa" fill-opacity="0.55" stroke="#334155" stroke-width="0.6" /><polygon points="117.2,75.0 102.8,72.0 93.2,84.0 96.4,102.0 112.4,102.0" fill="#38bdf8" fill-opacity="0.55" stroke="#334155" stroke-width="0.6" /><polygon points="66.0,102.0 83.6,102.0 80.4,120.0 67.6,120.0" fill="#7dd3fc" fill-opacity="0.55" stroke="#334155" stroke-width="0.6" /><polygon points="114.0,102.0 96.4,102.0 99.6,120.0 112.4,120.0" fill="#a5f3fc" fill-opacity="0.55" stroke="#334155" stroke-width="0.6" /><polygon points="53.2,69.0 59.6,63.0 64.4,84.0 58.0,96.0 51.6,87.0" fill="#bfdbfe" fill-opacity="0.55" stroke="#334155" stroke-width="0.6" /><polygon points="126.8,69.0 120.4,63.0 115.6,84.0 122.0,96.0 128.4,87.0" fill="#93c5fd" fill-opacity="0.55" stroke="#334155" stroke-width="0.6" /><polygon points="48.4,87.0 58.0,90.0 59.6,108.0 51.6,114.0 46.8,99.0" fill="#60a5fa" fill-opacity="0.55" stroke="#334155" stroke-width="0.6" /><polygon points="131.6,87.0 122.0,90.0 120.4,108.0 128.4,114.0 133.2,99.0" fill="#38bdf8" fill-opacity="0.55" stroke="#334155" stroke-width="0.6" /><polygon points="48.4,111.0 58.0,111.0 59.6,138.0 51.6,150.0 46.8,132.0" fill="#7dd3fc" fill-opacity="0.55" stroke="#334155" stroke-width="0.6" /><polygon points="131.6,111.0 122.0,111.0 120.4,138.0 128.4,150.0 133.2,132.0" fill="#a5f3fc" fill-opacity="0.55" stroke="#334155" stroke-width="0.6" /><polygon points="58.0,111.0 62.8,120.0 61.2,147.0 54.8,156.0 53.2,132.0" fill="#bfdbfe" fill-opacity="0.55" stroke="#334155" stroke-width="0.6" /><polygon points="122.0,111.0 117.2,120.0 118.8,147.0 125.2,156.0 126.8,132.0" fill="#93c5fd" fill-opacity="0.55" stroke="#334155" stroke-width="0.6" /><polygon points="45.2,150.0 53.2,150.0 56.4,186.0 50.0,198.0 43.6,174.0" fill="#60a5fa" fill-opacity="0.55" stroke="#334155" stroke-width="0.6" /><polygon points="134.8,150.0 126.8,150.0 123.6,186.0 130.0,198.0 136.4,174.0" fill="#38bdf8" fill-opacity="0.55" stroke="#334155" stroke-width="0.6" /><polygon points="80.4,111.0 99.6,111.0 101.2,171.0 90.0,186.0 78.8,171.0" fill="#7dd3fc" fill-opacity="0.55" stroke="#334155" stroke-width="0.6" /><polygon points="69.2,117.0 78.8,117.0 80.4,168.0 72.4,174.0 66.0,147.0" fill="#a5f3fc" fill-opacity="0.55" stroke="#334155" stroke-width="0.6" /><polygon points="110.8,117.0 101.2,117.0 99.6,168.0 107.6,174.0 114.0,147.0" fill="#bfdbfe" fill-opacity="0.55" stroke="#334155" stroke-width="0.6" /><polygon points="70.8,186.0 83.6,186.0 85.2,234.0 74.0,249.0 67.6,222.0" fill="#93c5fd" fill-opacity="0.55" stroke="#334155" stroke-width="0.6" /><polygon points="109.2,186.0 96.4,186.0 94.8,234.0 106.0,249.0 112.4,222.0" fill="#60a5fa" fill-opacity="0.55" stroke="#334155" stroke-width="0.6" /><polygon points="85.2,186.0 90.0,186.0 91.6,234.0 88.4,249.0 83.6,222.0" fill="#38bdf8" fill-opacity="0.55" stroke="#334155" stroke-width="0.6" /><polygon points="94.8,186.0 90.0,186.0 88.4,234.0 91.6,249.0 96.4,222.0" fill="#7dd3fc" fill-opacity="0.55" stroke="#334155" stroke-width="0.6" /><polygon points="74.0,249.0 83.6,249.0 85.2,285.0 77.2,294.0 72.4,273.0" fill="#a5f3fc" fill-opacity="0.55" stroke="#334155" stroke-width="0.6" /><polygon points="106.0,249.0 96.4,249.0 94.8,285.0 102.8,294.0 107.6,273.0" fill="#bfdbfe" fill-opacity="0.55" stroke="#334155" stroke-width="0.6" />
</svg>